<svg width="24" height="26" viewBox="0 0 24 26" fill="none" xmlns="http://www.w3.org/2000/svg">
<path d="M22 9.43359V4.77832C22 3.33252 21.36 2.74805 19.77 2.74805H15.73C14.14 2.74805 13.5 3.33252 13.5 4.77832V9.42334C13.5 10.8794 14.14 11.4536 15.73 11.4536H19.77C21.36 11.4639 22 10.8794 22 9.43359Z" fill="white"/>
<path d="M22 20.9692V16.8267C22 15.1963 21.36 14.54 19.77 14.54H15.73C14.14 14.54 13.5 15.1963 13.5 16.8267V20.9692C13.5 22.5996 14.14 23.2559 15.73 23.2559H19.77C21.36 23.2559 22 22.5996 22 20.9692Z" fill="white"/>
<path d="M10.5 9.43359V4.77832C10.5 3.33252 9.86 2.74805 8.27 2.74805H4.23C2.64 2.74805 2 3.33252 2 4.77832V9.42334C2 10.8794 2.64 11.4536 4.23 11.4536H8.27C9.86 11.4639 10.5 10.8794 10.5 9.43359Z" fill="white"/>
<path d="M10.5 20.9692V16.8267C10.5 15.1963 9.86 14.54 8.27 14.54H4.23C2.64 14.54 2 15.1963 2 16.8267V20.9692C2 22.5996 2.64 23.2559 4.23 23.2559H8.27C9.86 23.2559 10.5 22.5996 10.5 20.9692Z" fill="white"/>
</svg>
