<svg width="24" height="24" viewBox="0 0 24 24" fill="none" xmlns="http://www.w3.org/2000/svg">
<path d="M12 15.0002C13.6569 15.0002 15 13.6571 15 12.0002C15 10.3434 13.6569 9.00024 12 9.00024C10.3431 9.00024 9 10.3434 9 12.0002C9 13.6571 10.3431 15.0002 12 15.0002Z" stroke="white" stroke-width="2" stroke-linecap="round" stroke-linejoin="round"/>
<path d="M18.7273 14.7275C18.6063 15.0017 18.5702 15.3059 18.6236 15.6008C18.6771 15.8957 18.8177 16.1678 19.0273 16.3821L19.0818 16.4366C19.2509 16.6055 19.385 16.806 19.4765 17.0267C19.568 17.2474 19.6151 17.484 19.6151 17.723C19.6151 17.9619 19.568 18.1985 19.4765 18.4192C19.385 18.64 19.2509 18.8405 19.0818 19.0093C18.913 19.1784 18.7124 19.3125 18.4917 19.404C18.271 19.4955 18.0344 19.5426 17.7955 19.5426C17.5565 19.5426 17.3199 19.4955 17.0992 19.404C16.8785 19.3125 16.678 19.1784 16.5091 19.0093L16.4545 18.9548C16.2403 18.7452 15.9682 18.6046 15.6733 18.5511C15.3784 18.4977 15.0742 18.5338 14.8 18.6548C14.5311 18.77 14.3018 18.9614 14.1403 19.2053C13.9788 19.4492 13.8921 19.735 13.8909 20.0275V20.1821C13.8909 20.6643 13.6994 21.1267 13.3584 21.4677C13.0174 21.8087 12.5549 22.0002 12.0727 22.0002C11.5905 22.0002 11.1281 21.8087 10.7871 21.4677C10.4461 21.1267 10.2545 20.6643 10.2545 20.1821V20.1002C10.2475 19.7993 10.1501 19.5075 9.97501 19.2627C9.79991 19.0179 9.55521 18.8314 9.27273 18.7275C8.99853 18.6065 8.69437 18.5704 8.39947 18.6239C8.10456 18.6773 7.83244 18.8179 7.61818 19.0275L7.56364 19.0821C7.39478 19.2511 7.19425 19.3852 6.97353 19.4767C6.7528 19.5682 6.51621 19.6153 6.27727 19.6153C6.03834 19.6153 5.80174 19.5682 5.58102 19.4767C5.36029 19.3852 5.15977 19.2511 4.99091 19.0821C4.82186 18.9132 4.68775 18.7127 4.59626 18.492C4.50476 18.2712 4.45766 18.0346 4.45766 17.7957C4.45766 17.5568 4.50476 17.3202 4.59626 17.0994C4.68775 16.8787 4.82186 16.6782 4.99091 16.5093L5.04545 16.4548C5.25503 16.2405 5.39562 15.9684 5.4491 15.6735C5.50257 15.3786 5.46647 15.0744 5.34545 14.8002C5.23022 14.5314 5.03887 14.302 4.79497 14.1405C4.55107 13.979 4.26526 13.8923 3.97273 13.8912H3.81818C3.33597 13.8912 2.87351 13.6996 2.53253 13.3586C2.19156 13.0176 2 12.5552 2 12.073C2 11.5908 2.19156 11.1283 2.53253 10.7873C2.87351 10.4463 3.33597 10.2548 3.81818 10.2548H3.9C4.2009 10.2478 4.49273 10.1504 4.73754 9.97525C4.98236 9.80016 5.16883 9.55546 5.27273 9.27297C5.39374 8.99878 5.42984 8.69461 5.37637 8.39971C5.3229 8.1048 5.18231 7.83268 4.97273 7.61843L4.91818 7.56388C4.74913 7.39502 4.61503 7.1945 4.52353 6.97377C4.43203 6.75305 4.38493 6.51645 4.38493 6.27752C4.38493 6.03858 4.43203 5.80199 4.52353 5.58126C4.61503 5.36054 4.74913 5.16001 4.91818 4.99115C5.08704 4.82211 5.28757 4.688 5.50829 4.5965C5.72901 4.505 5.96561 4.4579 6.20455 4.4579C6.44348 4.4579 6.68008 4.505 6.9008 4.5965C7.12152 4.688 7.32205 4.82211 7.49091 4.99115L7.54545 5.0457C7.75971 5.25528 8.03183 5.39587 8.32674 5.44934C8.62164 5.50281 8.9258 5.46671 9.2 5.3457H9.27273C9.54161 5.23046 9.77093 5.03911 9.93245 4.79521C10.094 4.55131 10.1807 4.2655 10.1818 3.97297V3.81843C10.1818 3.33621 10.3734 2.87375 10.7144 2.53278C11.0553 2.1918 11.5178 2.00024 12 2.00024C12.4822 2.00024 12.9447 2.1918 13.2856 2.53278C13.6266 2.87375 13.8182 3.33621 13.8182 3.81843V3.90024C13.8193 4.19278 13.906 4.47859 14.0676 4.72249C14.2291 4.96639 14.4584 5.15773 14.7273 5.27297C15.0015 5.39399 15.3056 5.43008 15.6005 5.37661C15.8954 5.32314 16.1676 5.18255 16.3818 4.97297L16.4364 4.91843C16.6052 4.74938 16.8057 4.61527 17.0265 4.52377C17.2472 4.43227 17.4838 4.38518 17.7227 4.38518C17.9617 4.38518 18.1983 4.43227 18.419 4.52377C18.6397 4.61527 18.8402 4.74938 19.0091 4.91843C19.1781 5.08729 19.3122 5.28781 19.4037 5.50853C19.4952 5.72926 19.5423 5.96585 19.5423 6.20479C19.5423 6.44373 19.4952 6.68032 19.4037 6.90104C19.3122 7.12177 19.1781 7.32229 19.0091 7.49115L18.9545 7.5457C18.745 7.75995 18.6044 8.03208 18.5509 8.32698C18.4974 8.62189 18.5335 8.92605 18.6545 9.20024V9.27297C18.7698 9.54185 18.9611 9.77117 19.205 9.93269C19.4489 10.0942 19.7347 10.1809 20.0273 10.1821H20.1818C20.664 10.1821 21.1265 10.3736 21.4675 10.7146C21.8084 11.0556 22 11.518 22 12.0002C22 12.4825 21.8084 12.9449 21.4675 13.2859C21.1265 13.6269 20.664 13.8184 20.1818 13.8184H20.1C19.8075 13.8196 19.5217 13.9063 19.2778 14.0678C19.0339 14.2293 18.8425 14.4586 18.7273 14.7275Z" stroke="white" stroke-width="2" stroke-linecap="round" stroke-linejoin="round"/>
</svg>
