<svg width="24" height="25" viewBox="0 0 24 25" fill="none" xmlns="http://www.w3.org/2000/svg">
<circle opacity="0.2" cx="12" cy="12.5135" r="12" fill="white"/>
<path d="M12 9.51349C12.5523 9.51349 13 9.06577 13 8.51349C13 7.9612 12.5523 7.51349 12 7.51349C11.4477 7.51349 11 7.9612 11 8.51349C11 9.06577 11.4477 9.51349 12 9.51349Z" fill="black"/>
<path d="M12 13.5135C12.5523 13.5135 13 13.0658 13 12.5135C13 11.9612 12.5523 11.5135 12 11.5135C11.4477 11.5135 11 11.9612 11 12.5135C11 13.0658 11.4477 13.5135 12 13.5135Z" fill="black"/>
<path d="M12 17.5135C12.5523 17.5135 13 17.0658 13 16.5135C13 15.9612 12.5523 15.5135 12 15.5135C11.4477 15.5135 11 15.9612 11 16.5135C11 17.0658 11.4477 17.5135 12 17.5135Z" fill="black"/>
</svg>
