<svg width="24" height="24" viewBox="0 0 24 24" fill="none" xmlns="http://www.w3.org/2000/svg">
<path d="M16 8.00013V4.50079C16 3.66905 16 3.25318 15.8248 2.99761C15.6717 2.77431 15.4346 2.62263 15.1678 2.57721C14.8623 2.52523 14.4847 2.69951 13.7295 3.04805L4.85901 7.14213C4.18551 7.45298 3.84875 7.6084 3.60211 7.84945C3.38406 8.06255 3.21762 8.32268 3.1155 8.60996C3 8.93492 3 9.30581 3 10.0476V15.0001M16.5 14.5001H16.51M3 11.2001L3 17.8001C3 18.9202 3 19.4803 3.21799 19.9081C3.40973 20.2844 3.71569 20.5904 4.09202 20.7821C4.51984 21.0001 5.07989 21.0001 6.2 21.0001H17.8C18.9201 21.0001 19.4802 21.0001 19.908 20.7821C20.2843 20.5904 20.5903 20.2844 20.782 19.9081C21 19.4803 21 18.9202 21 17.8001V11.2001C21 10.08 21 9.51998 20.782 9.09215C20.5903 8.71583 20.2843 8.40987 19.908 8.21812C19.4802 8.00013 18.9201 8.00013 17.8 8.00013L6.2 8.00013C5.0799 8.00013 4.51984 8.00013 4.09202 8.21812C3.7157 8.40987 3.40973 8.71583 3.21799 9.09215C3 9.51998 3 10.08 3 11.2001ZM17 14.5001C17 14.7763 16.7761 15.0001 16.5 15.0001C16.2239 15.0001 16 14.7763 16 14.5001C16 14.224 16.2239 14.0001 16.5 14.0001C16.7761 14.0001 17 14.224 17 14.5001Z" stroke="white" stroke-width="2" stroke-linecap="round" stroke-linejoin="round"/>
</svg>
